M48
; DRILL file {KiCad (5.1.5-0-10_14)} date Sunday, February 09, 2020 at 01:16:45 PM
; FORMAT={-:-/ absolute / inch / decimal}
; #@! TF.CreationDate,2020-02-09T13:16:45-08:00
; #@! TF.GenerationSoftware,Kicad,Pcbnew,(5.1.5-0-10_14)
; #@! TF.FileFunction,Plated,1,2,PTH
FMAT,2
INCH
T1C0.0315
T2C0.0394
T3C0.0472
T4C0.0598
%
G90
G05
T1
X5.13Y-3.79
X5.13Y-4.29
X5.23Y-3.79
X5.23Y-4.29
X5.33Y-3.79
X5.33Y-4.29
X5.43Y-3.79
X5.43Y-4.29
X5.53Y-3.79
X5.53Y-4.29
X5.63Y-3.79
X5.63Y-4.29
X5.73Y-3.79
X5.73Y-4.29
X5.83Y-3.79
X5.83Y-4.29
T2
X4.1087Y-2.1865
X4.1087Y-3.7613
X4.8174Y-2.1865
X4.8174Y-3.7613
X5.02Y-2.45
X5.02Y-2.55
X5.02Y-2.65
X5.02Y-2.75
X5.02Y-2.85
X5.02Y-2.95
X5.02Y-3.05
X5.02Y-3.15
X5.92Y-2.45
X5.92Y-2.55
X5.92Y-2.65
X5.92Y-2.75
X5.92Y-2.85
X5.92Y-2.95
X5.92Y-3.05
X5.92Y-3.15
T3
X4.6431Y-4.19
X4.84Y-4.19
T4
X5.18Y-4.67
X5.38Y-4.67
X5.58Y-4.67
X5.78Y-4.67
T2
G00X4.4092Y-4.5619
M15
G01X4.3108Y-4.5619
M16
G05
G00X4.4092Y-4.7981
M15
G01X4.3108Y-4.7981
M16
G05
G00X4.545Y-4.7292
M15
G01X4.545Y-4.6308
M16
G05
T0
M30
